<svg viewBox="0 0 24 24">
    <path d="M23.5961 16.0964C23.3272 15.8273 23 15.6926 22.6156 15.6926H15.923L13.9615 17.654C13.4038 18.1924 12.75 18.4617 12 18.4617C11.2502 18.4617 10.5962 18.1928 10.0385 17.654L8.09137 15.6926H1.3846C1.00005 15.6926 0.673153 15.8274 0.403841 16.0964C0.13458 16.3656 0 16.6925 0 17.0773V21.6925C0 22.0772 0.13458 22.4041 0.403841 22.6733C0.673102 22.9425 1 23.0769 1.3846 23.0769H22.6156C23 23.0769 23.3272 22.9425 23.5962 22.6733C23.8655 22.4041 24 22.0772 24 21.6925V17.0773C24 16.6925 23.8655 16.3656 23.5961 16.0964ZM18.1878 20.957C18.0048 21.1397 17.7884 21.231 17.5384 21.231C17.2884 21.231 17.0723 21.1397 16.8894 20.957C16.7068 20.7742 16.6155 20.558 16.6155 20.3081C16.6155 20.0581 16.7068 19.8415 16.8894 19.6591C17.0723 19.4762 17.2884 19.3847 17.5384 19.3847C17.7884 19.3847 18.0048 19.4762 18.1878 19.6591C18.3703 19.8415 18.4616 20.0581 18.4616 20.3081C18.4616 20.5579 18.3703 20.7742 18.1878 20.957ZM21.8798 20.957C21.6972 21.1397 21.4808 21.231 21.2308 21.231C20.9808 21.231 20.7645 21.1397 20.5817 20.957C20.3992 20.7742 20.3079 20.558 20.3079 20.3081C20.3079 20.0581 20.3992 19.8415 20.5817 19.6591C20.7645 19.4762 20.9807 19.3847 21.2308 19.3847C21.4808 19.3847 21.6972 19.4762 21.8798 19.6591C22.0625 19.8415 22.154 20.0581 22.154 20.3081C22.154 20.5579 22.0627 20.7742 21.8798 20.957Z" fill="currentColor"/>
    <path d="M11.351 16.3415C11.5242 16.5241 11.7405 16.6154 12 16.6154C12.2597 16.6154 12.4758 16.5241 12.649 16.3415L19.1106 9.87986C19.4086 9.60105 19.4761 9.26445 19.3125 8.87021C19.1494 8.49531 18.8656 8.30784 18.4616 8.30764H14.7692V1.84607C14.7692 1.59611 14.6777 1.37974 14.4953 1.19707C14.3125 1.01435 14.0962 0.922958 13.8463 0.922958H10.1537C9.90381 0.922958 9.68745 1.01435 9.50467 1.19707C9.32205 1.37974 9.23066 1.59606 9.23066 1.84607V8.30769H5.53835C5.13431 8.30769 4.8508 8.49536 4.68732 8.87026C4.52395 9.26435 4.59119 9.6011 4.88935 9.87991L11.351 16.3415Z" fill="currentColor"/>
</svg>
